PathFileType	4	(x/y/z)	S10_M20_T35
DataRate	CameraRate	NumFrames	NumMarkers	Units	OrigDataRate	OrigDataStartFrame	OrigNumFrames
240	240	5	51	mm	240	212	563
Frame#	Time	Sternum			R.Acromium			L.Acromium			Top.Head			R.ASIS			L.ASIS			R.PSIS			L.PSIS			R.Great.Tro			L.Great.Tro			R.Iliac.Crest			L.Iliac.Crest			V.Sacral			R.Thigh.Upper.Post			R.Thigh.Lower.Ant			R.Thigh.Lower.Post			R.Thigh.Upper.Ant			R.Knee.Lat			R.Knee.Med			R.Shank.Upper.Post			R.Shank.Lower.Ant			R.Shank.Lower.Post			R.Shank.Upper.Ant			R.Ankle.Lat			R.Ankle.Med			R.Heel.Upper			R.Heel.Med			R.Heel.Lat			R.Toe.Lat			R.Toe.Med			R.Toe.Tip			L.Thigh.Upper.Post			L.Thigh.Lower.Ant			L.Thigh.Lower.Post			L.Thigh.Upper.Ant			L.Knee.Lat			L.Knee.Med			L.Shank.Upper.Post			L.Shank.Lower.Ant			L.Shank.Lower.Post			L.Shank.Upper.Ant			L.Ankle.Lat			L.Ankle.Med			L.Heel.Upper			L.Heel.Med			L.Heel.Lat			L.Toe.Lat			L.Toe.Med			L.Toe.Tip			Cervical.Spine			Back			
		X1	Y1	Z1	X2	Y2	Z2	X3	Y3	Z3	X4	Y4	Z4	X5	Y5	Z5	X6	Y6	Z6	X7	Y7	Z7	X8	Y8	Z8	X9	Y9	Z9	X10	Y10	Z10	X11	Y11	Z11	X12	Y12	Z12	X13	Y13	Z13	X14	Y14	Z14	X15	Y15	Z15	X16	Y16	Z16	X17	Y17	Z17	X18	Y18	Z18	X19	Y19	Z19	X20	Y20	Z20	X21	Y21	Z21	X22	Y22	Z22	X23	Y23	Z23	X24	Y24	Z24	X25	Y25	Z25	X26	Y26	Z26	X27	Y27	Z27	X28	Y28	Z28	X29	Y29	Z29	X30	Y30	Z30	X31	Y31	Z31	X32	Y32	Z32	X33	Y33	Z33	X34	Y34	Z34	X35	Y35	Z35	X36	Y36	Z36	X37	Y37	Z37	X38	Y38	Z38	X39	Y39	Z39	X40	Y40	Z40	X41	Y41	Z41	X42	Y42	Z42	X43	Y43	Z43	X44	Y44	Z44	X45	Y45	Z45	X46	Y46	Z46	X47	Y47	Z47	X48	Y48	Z48	X49	Y49	Z49	X50	Y50	Z50	X51	Y51	Z51	

212	0.87917	371.24	1239.2	364.1	216.71	1374.2	514.39	267	1430.9	216.83	150.35	1692.8	403.74	329.83	977.26	445.93	300.59	968.6	215.83	118.54	996.6	380.1	118.09	997.37	297.23	284.42	911.73	530.14	220.98	899.02	168.07	235.33	1059.7	498.18	240.32	1050.2	194.95	93.85	964.43	346.28	379.63	721.79	510.4	448.41	672.56	453.29	407.44	637.77	496.44	419.46	758.8	462.15	443.61	519.56	446.82	408.57	522.73	326.33	400.87	288.16	460.42	465	231.02	431.12	406.18	214.79	454.89	464.98	308.03	435.67	419.97	107.87	429.75	421.42	116.84	350.5	355.52	64.237	391.89	362.03	36.593	364.46	364.05	40.877	426.08	540.14	40.949	450.61	556.17	45.636	339.42	618.48	64.537	375.07	105.92	650.68	194.42	155.09	551.33	195.53	83.408	559.4	213.46	180.75	636.3	176.07	82.371	472.4	206.41	120.76	446.31	327.67	-108.86	380.33	212.5	-134.95	273.57	216.91	-165.95	328.26	221.24	-77.03	323.86	209.47	-243.24	222.74	229	-222.72	218.55	314.03	-280.61	269.61	274.16	-305.4	253.4	310.88	-311.66	255.15	245.26	-283.12	83.376	216.25	-258.27	68.922	322.75	-228.44	32.135	278.12	160.15	1457.4	366.96	84.005	1248.2	325.24
213	0.88333	376.87	1240	364.38	222.7	1375	514.75	272.6	1431.9	217.14	155.81	1693.5	404.75	335.57	978.05	446.26	305.85	969.17	216.23	124.14	997.42	380.71	123.46	998.02	297.84	290.34	912.58	530.59	226.43	899.16	169.05	241.22	1060.7	498.55	245.55	1050.7	195.32	99.361	965.12	347	384.54	722.02	510.72	452.99	672.41	453.59	411.84	637.85	496.75	424.55	758.81	462.47	447.13	519.35	447.12	412.51	522.95	326.51	402.64	288.33	460.49	466.33	230.65	431.18	407.34	214.89	454.89	466.94	307.65	435.78	420.21	107.96	429.67	421.78	116.97	350.5	355.52	64.249	391.9	362.03	36.612	364.49	364.06	40.899	426.08	540.15	40.988	450.62	556.2	45.509	339.34	618.53	64.309	375.01	114.85	648.94	194.68	165.27	550.2	195.51	93.582	557.3	213.45	189.85	635.63	176.15	93.559	470.84	206.07	132.37	444.35	327.21	-98.023	381.11	211.91	-125.52	274.69	216.5	-155.83	329.79	220.63	-66.912	324.23	209.08	-234.4	225.51	228.34	-214.05	221.04	313.71	-270.22	273.31	273.49	-295.44	257.82	310.37	-301.77	259.7	244.74	-277.93	86.621	215.88	-253.03	71.364	322.37	-225.09	32.269	277.33	165.91	1458.2	367.42	89.665	1249.2	325.69
214	0.8875	382.43	1240.8	364.56	228.7	1375.8	515.09	278.1	1432.9	217.39	161.27	1694.1	405.75	341.26	978.83	446.52	311.02	969.77	216.56	129.68	998.27	381.37	128.75	998.69	298.5	296.21	913.39	531.02	231.76	899.35	170.02	247.11	1061.6	498.9	250.65	1051.3	195.67	104.8	965.84	347.77	389.29	722.21	511.06	457.41	672.18	453.93	416.05	637.88	497.07	429.5	758.76	462.82	450.47	519.11	447.42	416.12	523.06	326.72	404.3	288.48	460.56	467.57	230.28	431.26	408.41	214.97	454.88	468.79	307.26	435.91	420.43	108.05	429.61	422.12	117.08	350.49	355.53	64.262	391.92	362.04	36.632	364.51	364.07	40.918	426.09	540.17	41.023	450.63	556.22	45.396	339.27	618.57	64.103	374.97	123.8	647.33	194.93	175.47	549.22	195.44	103.78	555.34	213.42	198.95	635.08	176.2	104.82	469.4	205.71	144.02	442.56	326.78	-87.058	381.91	211.31	-115.91	275.83	216.12	-145.53	331.32	220.03	-56.638	324.64	208.7	-225.37	228.28	227.71	-205.13	223.52	313.41	-259.68	276.9	272.91	-285.28	262.08	309.94	-291.71	264.13	244.3	-272.35	89.926	215.48	-247.37	73.851	321.92	-221.3	32.606	276.46	171.63	1459.1	367.87	95.267	1250.1	326.2
215	0.89167	387.9	1241.6	364.64	234.71	1376.7	515.41	283.49	1433.9	217.59	166.74	1694.9	406.72	346.9	979.6	446.73	316.1	970.42	216.84	135.17	999.14	382.08	133.98	999.4	299.21	302.04	914.18	531.43	236.97	899.6	170.98	253	1062.6	499.25	255.63	1051.9	195.99	110.18	966.61	348.61	393.88	722.35	511.4	461.68	671.89	454.31	420.06	637.85	497.4	434.33	758.65	463.2	453.64	518.85	447.74	419.41	523.1	326.98	405.84	288.6	460.62	468.73	229.91	431.36	409.4	215.04	454.88	470.52	306.88	436.07	420.64	108.13	429.55	422.44	117.2	350.48	355.54	64.278	391.93	362.04	36.652	364.54	364.08	40.937	426.09	540.18	41.054	450.64	556.25	45.293	339.2	618.61	63.916	374.92	132.77	645.87	195.16	185.68	548.4	195.35	114.01	553.54	213.39	208.05	634.67	176.23	116.14	468.12	205.35	155.69	440.97	326.39	-75.971	382.73	210.7	-106.1	276.99	215.78	-135.07	332.85	219.44	-46.217	325.09	208.32	-216.15	231.05	227.13	-195.98	225.97	313.12	-249.03	280.4	272.41	-274.94	266.19	309.59	-281.5	268.43	243.96	-266.36	93.276	215.04	-241.26	76.369	321.41	-217.03	33.16	275.52	177.32	1460	368.33	100.81	1251.1	326.77
216	0.89583	393.3	1242.4	364.62	240.74	1377.5	515.71	288.78	1434.9	217.74	172.21	1695.6	407.67	352.49	980.36	446.87	321.09	971.1	217.07	140.6	1000	382.83	139.15	1000.1	299.96	307.8	914.95	531.83	242.09	899.9	171.91	258.89	1063.6	499.58	260.5	1052.5	196.29	115.5	967.42	349.49	398.32	722.47	511.75	465.79	671.55	454.72	423.9	637.79	497.74	439.04	758.49	463.59	456.66	518.57	448.06	422.38	523.06	327.27	407.27	288.71	460.69	469.82	229.55	431.49	410.31	215.1	454.87	472.15	306.5	436.25	420.85	108.21	429.5	422.73	117.3	350.48	355.55	64.297	391.94	362.05	36.675	364.56	364.09	40.955	426.1	540.19	41.079	450.65	556.27	45.199	339.13	618.65	63.741	374.88	141.75	644.54	195.38	195.89	547.73	195.21	124.24	551.9	213.36	217.14	634.38	176.23	127.52	466.98	204.98	167.39	439.59	326.03	-64.777	383.57	210.08	-96.115	278.17	215.47	-124.47	334.38	218.87	-35.661	325.58	207.95	-206.75	233.82	226.58	-186.59	228.39	312.85	-238.27	283.79	272.01	-264.45	270.12	309.33	-271.16	272.58	243.7	-259.95	96.655	214.57	-234.7	78.907	320.83	-212.24	33.94	274.5	182.96	1460.9	368.77	106.3	1252	327.39
